<?xml version="1.0" encoding="UTF-8"?>
<svg id="Layer_1" data-name="Layer 1" xmlns="http://www.w3.org/2000/svg" viewBox="0 0 1105.05 182.86">
  <defs>
    <style>
      .cls-1 {
        fill: #d82d1f;
      }

      .cls-2 {
        fill: #423937;
      }
    </style>
  </defs>
  <g>
    <path class="cls-2" d="M37.2,65.98c-.38,0-1.36.06-2.28.13-.89.06-1.75.12-2.05.12-2.22,0-4.87-.01-5.68-.14-3.89-.46-6.13-3.32-6.13-7.85,0-.27.03-1.12.07-1.91.03-.65.05-1.26.05-1.43,0-.5-.07-1.85-.12-3.16-.06-1.27-.12-2.48-.12-2.91,0-2.12,0-4.73.13-6.73,0-1.2.05-1.96.09-2.47l.03-.57c0-.56-.1-2.07-.19-3.53-.09-1.42-.18-2.79-.18-3.28,0-.58.07-2.21.13-3.79.06-1.47.12-2.91.12-3.39,0-.69-.06-2.61-.13-4.48-.06-1.81-.12-3.58-.12-4.18,0-3.05.24-8.9.63-11.5-.01-.28.02-.64.06-1.01.02-.32.06-.63.06-.98,0-2.61-1.8-2.56-4.22-2.79-1.07,0-2.14,0-3.33.12-.61,0-1.13.03-1.68.06-.6.04-1.22.07-1.87.07-.6,0-2.19-.11-3.69-.21C5.5.09,4.3,0,3.91,0,.75,0,.49,2.26.49,4.78c0,1.6.03,3.21.06,4.82.03,1.61.06,3.23.06,4.84,0,.76-.06,2.83-.13,4.84-.06,1.91-.12,3.78-.12,4.44,0,1.11.03,2.25.06,3.38.03,1.15.06,2.3.06,3.42,0,.5-.03,1.84-.06,3.17-.03,1.33-.06,2.64-.06,3.14,0,.63.06,2.43.13,4.18.06,1.68.12,3.32.12,3.86,0,1.03,0,1.92-.13,2.95-.12,1.15-.49,6.48-.49,7.58,0,1.48.18,7.43.29,10.94.04,1.5.08,2.56.08,2.67,0,1.56-.06,3.15-.13,4.74-.06,1.57-.12,3.13-.12,4.67,0,.31-.03,1.26-.06,2.19-.03.92-.06,1.83-.06,2.14,0,.79.29,3.41,4.03,3.41.57,0,2.18-.06,3.74-.13,1.5-.06,2.95-.12,3.44-.12l3.34.02c4.23.03,10.7.08,12.34-.02l1.2-.02c1.58-.03,3.99-.07,4.65.03h.06c.34,0,1.38.05,2.41.11,1.07.06,2.13.13,2.5.13,1.2,0,1.55-.13,1.87-.29.62-.24,1.54-.85,1.54-2.63,0-.58.07-2.12.13-3.61.06-1.38.11-2.72.11-3.2,0-8.81-.13-10.46-4.15-10.46Z"/>
    <path class="cls-2" d="M89.15,23.66c-6.08-5.71-13.4-5.71-16.52-5.71-3.36,0-9.62,0-15.71,4.9-4.57,3.54-6.6,9.81-6.89,11.29-.49,1.6-1.6,7.38-1.85,9-.49,2.68-.49,5.41-.49,8.05,0,7.82,0,8.64.12,10.47.72,12.25,5.34,18.18,8.03,20.63,4.87,4.62,11.41,5.23,17.16,5.23,16.07,0,20.98-11.78,22.49-18.8.14-.57,1.71-9.42,1.71-16.05,0-10.68-.28-16.01-3.02-22.07-1.04-2.31-2.73-4.64-5.03-6.94ZM77.5,62.35c-.5,3.66-2.76,6.23-5.49,6.23-5.62,0-5.62-8.33-5.62-11.07,0-.38.03-1.51.06-2.63.03-1.1.06-2.21.06-2.57-.12-4.43-.12-6.42.51-9.67,1.07-4.27,3.01-6.59,5.49-6.59,4.51,0,5.51,6.56,5.51,9.09,0,12.95,0,14.31-.51,17.22Z"/>
    <path class="cls-2" d="M143.13,50.65c-.17-.21-.35-.42-.49-.63-1.19-1.55-1.27-1.63-2.08-2.31-.26-.08-1.97-1.08-3.75-2.15-1.55-.91-3.16-1.87-4.03-2.34-1.51-.76-3.61-1.8-4.47-2.96-.73-.72-.9-1.67-.9-2.33,0-2.18,2.47-3.53,4.76-3.53,1.04,0,3.15.68,4.02,1.05.37.16.77.34,1.19.51.85.38,1.73.78,2.49.93.35.11.49.11.71.11,1.28,0,3.04-1.47,3.04-2.3l.12-1.79c0-.37-.06-1.66-.12-2.94-.06-1.31-.13-2.63-.13-3.06,0-1.04,0-2.06.13-2.96.12-.71.24-1.41.24-1.99,0-2.51-2.31-3.31-4.25-3.54-2.53-.21-8.11-.61-10.92-.61-15.1,0-18.08,5.94-20.7,11.19-1.14,2.38-1.65,4.87-1.65,8.06,0,5.89.92,9.75,5.94,14.52,1.16.91,1.51,1.16,5.33,3.62q5.85,3.86,6.5,4.38c1.68,1.32,2.53,2.74,2.53,4.21,0,2.71-2.55,4.27-6.99,4.27-3.11,0-6.44-1.02-7.54-1.57-1.8-.84-1.94-.91-2.74-.91-1.41,0-3.78.56-3.78,4.28,0,.69.03,2.66.06,4.56.03,1.83.06,3.62.06,4.23,0,4.75,0,5.14,3.07,6.31,4.03,1.42,6.11,2.05,13.09,2.05,14.05,0,20.03-5.49,22.57-10.1,2.12-3.77,3.24-8.13,3.24-12.61,0-7.46-2.08-10.81-4.13-13.08-.17-.25-.31-.42-.45-.58Z"/>
    <path class="cls-2" d="M232.83,75.18c-.21-1.01-.43-2.02-.68-3.01-.99-5.22-2-10.5-2.49-15.71-.48-6.08-.61-6.75-1.21-9.95-.27-1.48-.88-4.58-1.56-8-.99-5.05-2.13-10.8-2.42-12.57-.1-.69-.31-2.32-.55-4.14-.36-2.82-.79-6.1-.94-7-.13-1.26-1.49-8.02-1.84-9.47-.81-4.29-1.78-5.09-6.04-5.09-5.53.22-11.15.28-16.74,0-1.37-.12-2.71-.25-4.05-.25-4.57,0-5.66,0-7.64,8.66-.49,2.37-.79,4.8-1.1,7.21-.31,2.47-.63,4.94-1.13,7.38-.27,1.37-.58,2.74-.89,4.08-.4,1.78-.8,3.54-1.08,5.29-.19,1.11-.31,2.18-.43,3.25-.13,1.1-.25,2.19-.44,3.32-.24,1.73-.57,3.51-.9,5.3-.35,1.89-.71,3.79-.96,5.69-.19.94-.51,3.34-.83,5.75-.36,2.63-.72,5.3-.91,6.2-.14.8-.31,1.64-.49,2.46-.14.63-.27,1.25-.38,1.85-.04.36-.51,3.05-1.04,6.18-.7,4.09-1.76,10.25-1.79,10.78,0,.45.28,1.92,1.54,2.31.85.21,1.76.21,2.73.21.65,0,2.44-.03,4.12-.07,1.52-.03,2.96-.06,3.43-.06.52,0,1.89.1,3.2.2,1.19.09,2.33.17,2.75.17,1.62,0,3.3-.45,3.41-3.81l.07-1.01c.32-4.58.63-7.58,1.16-8.42.86-1.37,2.25-1.61,4.88-1.61,6.04,0,7.64.01,8.28.33,1.76.8,2.04,2.56,2.3,5.36.25,1.85.5,3.74.5,5.51s.39,3.66,3.29,3.66c.5,0,1.95-.09,3.35-.19,1.35-.1,2.66-.18,3.09-.18.71,0,2.59.09,4.42.19,1.72.09,3.4.18,4,.18,1.65,0,3.04-2.01,3.04-4.4,0-1.19-.12-2.37-.35-3.56-.24-.96-.46-1.99-.68-3.02ZM203.34,51.87c-3.97,0-4.51-2.72-4.51-5.38,0-1.8.38-3.71.75-5.56.2-1.07.33-2.09.46-3.12.22-1.7.45-3.46.92-5.27.37-1.35.86-3.54,1.1-5,.11-.86.6-3.77,2.27-3.77.66,0,1.97.64,2.27,3.06.13.78.23,1.59.33,2.41.09.69.17,1.4.29,2.14.12,1,.31,1.97.49,2.94.19,1.01.38,2.02.5,3.02.73,4.56.75,9.31.75,9.51,0,5.01-4.24,5.01-5.63,5.01Z"/>
    <path class="cls-2" d="M261.09,73.48c0-1.24.03-2.86.06-4.48.03-1.6.06-3.2.06-4.44v-6.93c0-1.15-.1-4.22-.19-7.19-.09-2.83-.18-5.58-.18-6.55l.02-3.64c.03-4.57.07-11.47-.02-13.27,0-.43.03-1.52.06-2.54.03-.91.06-1.79.06-2.08,0-.82-.03-3.09-.06-5.31-.03-2.14-.06-4.23-.06-4.97,0-3.05.13-5.06.5-7.66v-1.25c-.01-1.9-1.51-2.91-2.92-2.91-.45,0-1.63.03-2.75.07-1.06.03-2.09.06-2.45.06h-6.93c-3.83,0-4.28.52-4.28,5.01,0,.48,0,.6.12,1.91.25,2.38.25,4.02.25,5.02s-.1,3.57-.2,6.08c-.09,2.31-.18,4.53-.18,5.3,0,.7.03,2.55.06,4.36.03,1.75.06,3.45.06,4.05,0,.7-.03,2.63-.06,4.52-.03,1.79-.06,3.54-.06,4.14.12,1.94.37,10.47.37,12.25,0,.7-.03,2.64-.06,4.52-.03,1.8-.06,3.54-.06,4.15,0,1.79.03,3.58.06,5.37.03,1.8.06,3.6.06,5.39,0,.91-.06,3.42-.13,5.84-.06,2.22-.12,4.35-.12,5.05,0,.47.16,2.79,3.29,2.79.36,0,1.39-.06,2.43-.13,1.07-.06,2.14-.12,2.52-.12.52,0,1.97.06,3.37.13,1.28.06,2.52.12,2.94.12,2.4,0,2.88-.06,2.98-.09,1.26-.31,1.79-1.01,1.79-4.31,0-.69-.09-2.5-.19-4.28-.09-1.72-.18-3.4-.18-4.01Z"/>
    <path class="cls-2" d="M318.03,37.33c0-7.96-1.25-10.17-2.54-11.75-2.75-3.2-10.55-6.63-19.55-6.63-4.8,0-12.24,1.31-17.15,2.45-2.6.48-3.84,1.55-3.84,3.31,0,.36.06,1.43.13,2.49.06,1.11.12,2.21.12,2.59s-.03,1.5-.06,2.56c-.03.95-.06,1.85-.06,2.15,0,2.67.99,4.15,2.78,4.15.59,0,.93-.1,4.42-1.43,2.58-1.03,5.02-1.54,7.47-1.54.4,0,1.42.07,2.39.14.84.06,1.65.11,1.94.11,2.74.13,6.74.31,6.74,5.26,0,1.36-1.02,3.28-3.27,3.28-.29,0-1.41-.1-2.66-.21-1.51-.14-3.23-.29-3.78-.29h-.62c-2.2,0-4.27,0-11.03,3.38-2.43,1.27-4.6,3.48-6.6,6.76-1.49,2.73-1.99,6.26-1.99,13.94,0,5.68,1.71,10.2,5.22,13.8,4.84,4.95,9.82,4.95,12.8,4.95,1.78,0,6.5,0,9.38-2.52.46-.45,1.06-1.06,1.77-1.06.62,0,1.16.35,1.45.94.14.2.23.51.3.76.02.03.19.45.2.49.11.22.58.67,1.14.67.49,0,1.83-.09,3.17-.17,1.38-.1,2.77-.19,3.27-.19s1.86.03,3.16.06c1.2.03,2.36.06,2.78.06.76,0,2.54-.26,2.54-2.66,0-.55-.09-2.17-.18-3.79-.1-1.67-.19-3.32-.19-3.89,0-.77.1-2.96.19-5.11.09-2.02.18-4.01.18-4.67,0-.69-.03-2.55-.06-4.37-.03-1.74-.06-3.44-.06-4.05,0-.39.03-1.5.06-2.56.03-.95.06-1.86.06-2.14,0-.56-.06-2.08-.13-3.54-.06-1.41-.12-2.78-.12-3.26,0-.7.06-2.58.13-4.41.06-1.72.12-3.41.12-4.01ZM294.81,72.66c-2.21,0-5.5-1.86-5.5-6.99,0-6.25,3.37-8.47,6.25-8.47,3.63,0,5.26,3.69,5.26,7.36,0,5.15-2.19,8.1-6,8.1Z"/>
    <path class="cls-2" d="M357.87,45.87c0,1.92.04,4.42.06,6.93.03,2.5.06,5.01.06,6.93,0,.37.03,1.41.06,2.45.03,1.07.06,2.13.06,2.51,0,.44-.06,1.73-.13,3.01-.06,1.25-.12,2.5-.12,2.93,0,.32.04,1.08.07,1.8.03.68.06,1.3.06,1.54-.13,1.62-.37,8.44-.37,9.78,0,1.5,1.06,2.42,2.05,2.42.77,0,2.96-.06,5.05-.13,1.92-.06,3.76-.12,4.36-.12,1.27,0,2.53,0,3.79.12.52.12,1.09.12,1.66.12,2.39,0,2.42-2.15,2.42-2.17,0-.25-.07-.98-.13-1.66-.06-.65-.11-1.26-.11-1.44-.12-1.56-.13-3.31-.13-4.95,0-1.19.13-4.43.25-7.62.12-3.09.24-6.13.24-7.23,0-.57-.03-2.16-.06-3.69-.03-1.46-.06-2.88-.06-3.36.12-1.4.37-7.44.37-8.67l.04-.73c.1-1.95.18-3.49.98-4.57.17-.26,1.23-1.69,3.36-1.69,2.81,0,4.33,1.89,4.51,5.59.13,4.24.13,4.85.13,6.85,0,.62-.07,2.4-.13,4.17-.06,1.76-.12,3.51-.12,4.12v4.08c0,.64-.04,2.42-.07,4.16-.03,1.63-.06,3.22-.06,3.76,0,5.51,0,6.36-.25,8.99,0,.43-.03.94-.06,1.46-.04.48-.06.96-.06,1.43,0,.56,0,2.24,1.43,3.01.29.14.64.15,1.61.15.63,0,2.39-.06,4.11-.13,1.65-.06,3.26-.12,3.81-.12s2,.06,3.44.13c1.31.06,2.58.12,3,.12.46,0,1.68,0,1.68-2.17.13-.61.37-3.01.37-3.47,0-.43-.1-1.69-.2-2.91-.09-1.16-.17-2.29-.17-2.66,0-1.39.16-2.75.33-4.08.12-.93.24-1.85.28-2.77v-5.03c0-.3-.06-1.21-.12-2.11-.06-.95-.12-1.91-.12-2.22,0-.69.03-1.38.06-2.08.03-.67.06-1.34.06-2,0-.51-.06-1.82-.13-3.1-.06-1.23-.12-2.42-.12-2.85,0-.58.1-2.19.2-3.75.09-1.44.17-2.83.17-3.3,0-1.27-.73-8.42-1.09-9.83-1.65-7.81-7.29-12.64-14.69-12.64-4.88,0-9.36,2.54-10.54,3.43-1.89,1.25-2.32,1.52-3.33,1.52-1.27,0-2.35-.94-3.31-1.75-1.17-.81-5.39-3.44-10.55-3.44-4.75,0-7.79,2.33-8.15,2.76-.48.39-.77.62-1.02.83-1.84,1.49-2.63-.02-2.89-.6l-.28-.64c-.13-.3-.24-.57-.43-.82-.67-1.04-1.38-1.04-2.21-1.04-.63,0-2.24.13-3.82.25-1.55.12-3.06.24-3.61.24-.96,0-1.91-.03-2.84-.06-.89-.03-1.76-.06-2.6-.06-2.42,0-4.03,0-4.03,4.52,0,.55.03,2.16.06,3.76.03,1.61.06,3.23.06,3.79,0,1.02-.09,3.79-.19,6.53-.09,2.61-.18,5.19-.18,6.1,0,1.97.09,3.97.19,5.97.09,2.02.19,4.04.19,6.04,0,.85-.06,3.1-.13,5.27-.05,1.97-.11,3.86-.11,4.52,0,.75.09,2.82.19,4.85.09,1.96.18,3.89.18,4.56s-.07,2.4-.13,4.1c-.06,1.6-.12,3.16-.12,3.7,0,2.67,1.4,2.67,2.42,2.67.83,0,3.01-.06,5.08-.13,1.94-.06,3.78-.12,4.44-.12.25,0,1.04.03,1.84.06.76.03,1.51.06,1.76.06,1.97,0,3.29-.48,3.29-2.79,0-.52-.13-2.53-.22-2.91-.15-3.26-.15-6-.15-7.37,0-.95.1-3.69.19-6.39.09-2.59.18-5.13.18-5.99s-.13-3.06-.26-5.19c-.12-2-.23-3.92-.23-4.58,0-1.89.25-6.87.5-8.65.43-2.86,2.91-3.91,4.38-3.91,4.76,0,4.76,4.95,4.76,7.61Z"/>
    <path class="cls-2" d="M423.22,82.29c4.87,4.62,11.41,5.23,17.16,5.23,16.06,0,20.99-11.78,22.49-18.8.14-.57,1.71-9.42,1.71-16.05,0-10.68-.28-16.01-3.02-22.07-1.03-2.31-2.72-4.64-5.03-6.94-6.08-5.71-13.4-5.71-16.52-5.71-3.36,0-9.63,0-15.72,4.9-4.56,3.54-6.6,9.81-6.9,11.29-.49,1.6-1.6,7.38-1.85,9-.49,2.68-.49,5.41-.49,8.05,0,7.82,0,8.64.12,10.47.72,12.25,5.34,18.18,8.04,20.63ZM433.83,54.87c.03-1.1.06-2.21.06-2.57-.13-4.43-.12-6.42.51-9.67,1.06-4.27,3.01-6.59,5.48-6.59,4.52,0,5.51,6.56,5.51,9.09,0,12.95,0,14.31-.51,17.22-.51,3.66-2.77,6.23-5.49,6.23-5.63,0-5.63-8.33-5.63-11.07,0-.38.03-1.51.06-2.63Z"/>
    <path class="cls-2" d="M486.33,68.08c-3.11,0-6.44-1.02-7.53-1.57-1.8-.84-1.94-.91-2.74-.91-1.41,0-3.78.56-3.78,4.28,0,.69.03,2.66.06,4.56.03,1.83.06,3.62.06,4.23,0,4.75,0,5.14,3.08,6.31,4.03,1.42,6.11,2.05,13.08,2.05,14.05,0,20.04-5.49,22.57-10.1,2.12-3.77,3.24-8.13,3.24-12.61,0-7.46-2.09-10.81-4.13-13.08-.18-.25-.31-.42-.45-.58-.17-.21-.35-.42-.49-.63-1.2-1.55-1.28-1.63-2.09-2.31-.26-.08-1.97-1.08-3.75-2.15-1.54-.91-3.15-1.87-4.02-2.34-1.52-.76-3.61-1.8-4.48-2.96-.73-.72-.9-1.67-.9-2.33,0-2.18,2.47-3.53,4.76-3.53,1.04,0,3.14.68,4.02,1.05.37.16.77.34,1.18.51.85.38,1.73.78,2.5.93.34.11.49.11.71.11,1.28,0,3.04-1.47,3.04-2.3l.13-1.79c0-.37-.06-1.66-.13-2.94-.06-1.31-.12-2.63-.12-3.06,0-1.04,0-2.06.13-2.96.12-.71.24-1.41.24-1.99,0-2.51-2.31-3.31-4.25-3.54-2.53-.21-8.11-.61-10.92-.61-15.1,0-18.08,5.94-20.7,11.19-1.14,2.38-1.65,4.87-1.65,8.06,0,5.89.91,9.75,5.94,14.52,1.16.91,1.51,1.16,5.33,3.62q5.86,3.86,6.51,4.38c1.67,1.32,2.53,2.74,2.53,4.21,0,2.71-2.55,4.27-6.99,4.27Z"/>
  </g>
  <g>
    <path class="cls-2" d="M988.64.51c-.87-.5-1.24-.57-3.68-.38-.82.06-1.66.12-1.97.12-.62,0-2.37-.06-4.11-.12-1.73-.06-3.45-.12-4.05-.12-3.39,0-3.66,2.04-3.66,4.52,0,.44.03,1.59.06,2.69.03,1.03.05,2.02.05,2.39,0,2.44,1.17,3.78,3.28,3.78.26,0,.86-.04,1.42-.07.52-.03,1-.05,1.17-.05h9.54c2.94,0,3.53-1.83,3.53-4.77,0-.19-.12-5.31-.12-5.31-.1-1.26-.15-1.86-1.47-2.68Z"/>
    <path class="cls-2" d="M546.04,78.42c0,.31-.03,1.26-.05,2.19-.03.92-.06,1.83-.06,2.14,0,.79.29,3.41,4.04,3.41.56,0,2.18-.06,3.73-.13,1.5-.06,2.95-.12,3.44-.12l3.34.02c4.23.03,10.69.08,12.34-.02l1.2-.02c1.57-.03,3.98-.07,4.65.03h.05c.34,0,1.38.05,2.41.11,1.07.06,2.13.13,2.49.13,1.2,0,1.54-.13,1.88-.29.62-.24,1.54-.85,1.54-2.63,0-.58.07-2.12.12-3.61.06-1.38.12-2.72.12-3.2,0-8.81-.12-10.46-4.15-10.46-.39,0-1.35.06-2.28.13-.89.06-1.74.12-2.05.12-2.21,0-4.86-.01-5.68-.14-3.89-.46-6.13-3.32-6.13-7.85,0-.27.03-1.12.07-1.91.03-.65.05-1.26.05-1.43,0-.5-.06-1.85-.13-3.16-.06-1.27-.12-2.48-.12-2.91,0-2.12,0-4.73.13-6.73,0-1.2.05-1.96.09-2.47l.03-.57c0-.56-.1-2.07-.19-3.53-.09-1.42-.18-2.79-.18-3.28,0-.58.06-2.21.13-3.79.06-1.47.12-2.91.12-3.39,0-.69-.06-2.61-.13-4.48-.06-1.81-.12-3.57-.12-4.18,0-3.05.24-8.91.63-11.5-.01-.28.02-.64.05-1.01.03-.32.06-.63.06-.98,0-2.58-1.8-2.79-4.16-2.79-1.07-.03-2.17,0-3.38.12-.61,0-1.14.03-1.68.06-.59.04-1.21.07-1.86.07-.6,0-2.2-.11-3.7-.21-1.27-.09-2.47-.17-2.86-.17-3.15,0-3.42,2.25-3.42,4.77,0,1.6.03,3.21.06,4.82.03,1.61.05,3.23.05,4.84,0,.76-.06,2.83-.13,4.84-.05,1.91-.11,3.78-.11,4.44,0,1.11.02,2.25.06,3.38.02,1.15.05,2.3.05,3.42,0,.5-.03,1.84-.05,3.17-.04,1.33-.06,2.64-.06,3.14,0,.63.06,2.43.12,4.18.06,1.68.11,3.32.11,3.86,0,1.03,0,1.92-.13,2.95-.11,1.15-.48,6.48-.48,7.58,0,1.48.18,7.43.29,10.94.04,1.5.09,2.56.09,2.67,0,1.56-.06,3.15-.13,4.74-.06,1.57-.13,3.13-.13,4.67Z"/>
    <path class="cls-2" d="M621.5,44.44c-.28,0-1.41-.1-2.65-.21-1.51-.14-3.24-.29-3.79-.29h-.61c-2.2,0-4.27,0-11.04,3.38-2.44,1.27-4.6,3.48-6.6,6.76-1.49,2.73-1.99,6.26-1.99,13.94,0,5.68,1.72,10.2,5.22,13.8,4.84,4.95,9.82,4.95,12.8,4.95,1.78,0,6.51,0,9.37-2.52,1.1-1.11,2.63-1.34,3.22-.13.15.2.23.51.3.75.02.02.18.45.2.49.11.22.57.67,1.14.67.48,0,1.82-.09,3.16-.17,1.38-.1,2.77-.19,3.28-.19s1.85.03,3.15.06c1.2.03,2.37.06,2.79.06.76,0,2.54-.26,2.54-2.66,0-.55-.09-2.17-.18-3.79-.1-1.67-.19-3.32-.19-3.89,0-.77.1-2.96.2-5.11.09-2.02.17-4.01.17-4.67,0-.69-.03-2.55-.06-4.37-.04-1.74-.06-3.44-.06-4.05,0-.39.03-1.5.06-2.56.03-.95.05-1.86.05-2.14,0-.56-.06-2.08-.13-3.54-.06-1.41-.12-2.78-.12-3.26,0-.7.07-2.58.13-4.41.06-1.72.12-3.41.12-4.01,0-7.96-1.25-10.17-2.54-11.75-2.76-3.2-10.55-6.63-19.55-6.63-4.82,0-12.24,1.31-17.15,2.45-2.6.48-3.84,1.55-3.84,3.31,0,.36.06,1.43.12,2.49.06,1.11.12,2.21.12,2.59s-.03,1.5-.06,2.56c-.03.95-.06,1.85-.06,2.15,0,2.71.96,4.15,2.79,4.15.6,0,.92-.1,4.41-1.43,2.58-1.03,5.03-1.54,7.47-1.54.39,0,1.41.07,2.39.14.84.06,1.66.11,1.95.11,2.72.13,6.74.31,6.74,5.26,0,1.36-1.02,3.28-3.28,3.28ZM618.78,72.66c-2.21,0-5.51-1.86-5.51-6.99,0-6.25,3.37-8.47,6.25-8.47,3.63,0,5.26,3.69,5.26,7.36,0,5.15-2.19,8.1-6,8.1Z"/>
    <path class="cls-2" d="M685.74,18.7c-5.06,0-8.32,2.06-9.71,2.95-.18.1-.44.26-.73.45-1.12.71-1.28.8-1.57.8-.38,0-1.09-.19-1.5-1.42-.1-.23-.16-.49-.23-.76-.08-.31-.14-.56-.27-.74-.41-.65-1.57-.71-2.77-.61-.4.03-.79.06-1.18.06-1.04.12-2.41.25-5.06.25-.15,0-.41-.01-.73-.04-.5-.03-1.2-.08-1.88-.08-1.17-.13-2.24-.13-2.6-.13-.92,0-2.23.16-3.02,1.58-.34.61-.51,2.35-.51,5.18,0,.63.1,2.39.19,4.09.09,1.66.18,3.28.18,3.83,0,.4-.03,1.5-.06,2.57-.03.94-.06,1.84-.06,2.14,0,.51.04,1.81.06,3.05.03,1.19.06,2.34.06,2.76-.12,2.65-.25,5.26-.5,7.99-.13,2.89-.24,5.38-.24,7.97,0,1.15.1,4.32.19,7.39.09,2.92.18,5.76.18,6.73,0,.62-.06,2.31-.12,3.99-.06,1.66-.12,3.32-.12,3.93,0,2.73,1.47,3.69,3.65,3.48.33-.03.67-.07,1-.07.92-.12,2.06-.12,3.21-.12h4.71c.27,0,1.38.07,2.41.14.85.06,1.64.11,1.81.11,1.77,0,2.05-1.98,2.05-3.16,0-.7,0-1.4-.12-2.1-.13-2.32-.26-4.57-.26-6.32,0-1.88.1-3.74.19-5.57.09-1.79.19-3.55.19-5.32,0-.55-.06-2.09-.13-3.61-.06-1.56-.12-3.13-.12-3.69,0-3.04.37-9.8.62-13.31.28-4.9,3.51-5.44,4.88-5.44,4.76,0,4.76,4.27,4.76,5.88v3.22c-.05,1.16-.16,2.28-.25,3.4-.1,1.1-.18,2.22-.25,3.33-.12,1.72-.12,3.55-.12,5.27,0,1.06.1,3.97.19,6.84.1,2.79.18,5.55.18,6.53,0,.89-.16,3.34-.32,5.74-.15,2.27-.3,4.49-.3,5.28,0,.91.86,2.01,1.38,2.53.19.13.72.38,2.27.38.49,0,1.89-.09,3.3-.17,1.44-.1,2.89-.19,3.38-.19.56,0,2.11.11,3.49.21,1.02.08,1.95.15,2.21.15,2.43,0,3.29-1.87,3.29-7.12,0-.45-.07-1.67-.12-2.86-.06-1.14-.12-2.22-.12-2.58,0-.64.06-2.34.13-3.98.05-1.54.11-3.03.11-3.57,0-.57-.03-2.09-.06-3.56-.03-1.41-.06-2.77-.06-3.24,0-.7.06-2.74.13-4.73.06-1.88.12-3.71.12-4.31,0-.57-.03-2.16-.06-3.69-.03-1.46-.06-2.88-.06-3.36s.06-1.69.13-2.88c.05-1.06.11-2.09.11-2.44,0-4.38-.47-9.92-4.12-13.95-1.38-1.52-5.25-5.05-11.42-5.05Z"/>
    <path class="cls-2" d="M760.18.27s-.71-.28-1.42-.27c-.65,0-1.28.08-1.82.13-1.69.21-1.86.1-2.5.05-.45-.03-.91-.06-1.36-.06-.66,0-1.32,0-1.97.11-1.06.14-1.96.14-2.98.14-2.49,0-2.78,0-3.31.1-2.35.19-2.82,2.1-2.82,3.68,0,.52.09,1.76.19,3.18l.05.73c.26,2.28.38,6.7.38,8.97,0,.19-.03.8-.06,1.4-.03.57-.06,1.14-.06,1.31,0,.56,0,2.04-1.54,2.04-.8,0-.99-.16-2.02-1.06-1.15-1.05-4.74-2.03-7.39-2.03-5.44,0-12.94,3.95-16.11,11.27-.32.64-2.55,7.39-3.03,12.14-.35,2.71-.49,4.66-.49,6.97,0,3.04.11,12.27.49,15.12.84,6.48,3.9,15.2,8.62,19.04,2.82,2.48,8.58,3.41,9.39,3.41.49,0,2.21-.23,3.6-.41l1.65-.21c2.09-.55,3.73-1.37,4.39-1.92,1.93-1.51,3.29-.84,3.29.86q0,.62.55.89c1.02.51,1.89.26,2.83.1,1.58-.18,2.98-.18,5.36-.18h3.46c1.42.19,2.9.66,3.73.04.05-.04,1.3-.88,1.3-2.95,0-.46,0-.89-.11-1.29-.14-1.4-.27-13.63-.27-14.56,0-1.07.13-4.13.25-7.15.12-2.9.24-5.74.24-6.71,0-.51-.03-1.97-.06-3.38-.03-1.34-.05-2.64-.05-3.05,0-1.45.03-2.86.05-4.26.04-1.36.06-2.69.06-4.03,0-.76-.03-2.87-.06-4.93-.03-1.99-.05-3.93-.05-4.6v-2.84c0-1.23-.04-2.44-.06-3.64-.03-1.21-.06-2.42-.06-3.66,0-1.63,0-3.26.13-5.01.24-2.45.24-2.69.24-3.65v-3.35c.13-1.05.26-2.01.26-2.97,0-1.71-.58-3.22-.89-3.52h0ZM740.54,62.94c-1.24,3.92-4.1,4.04-4.42,4.04-2.63,0-4.49-2.08-5.25-5.85-.27-1.64-.5-6.81-.5-9.06,0-4.04.6-13.43,6.24-13.43,2.41,0,4.47,2.49,5.25,6.33.26,1.19.26,3.67.26,5.48.12,1.05.25,2.32.25,3.59,0,2.84-1.62,8.5-1.82,8.89Z"/>
    <path class="cls-2" d="M807.23,50.65c-.17-.21-.34-.42-.48-.63-1.19-1.55-1.28-1.63-2.09-2.31-.26-.08-1.96-1.07-3.74-2.13-1.56-.93-3.16-1.89-4.04-2.35-1.51-.75-3.6-1.8-4.47-2.96-.74-.72-.91-1.67-.91-2.33,0-2.18,2.48-3.53,4.76-3.53,1.05,0,3.15.68,4.03,1.05.37.16.77.34,1.18.51.85.38,1.73.78,2.49.93.35.11.49.11.71.11,1.28,0,3.04-1.47,3.04-2.3l.13-1.79c0-.37-.06-1.66-.13-2.94-.06-1.31-.12-2.63-.12-3.06,0-1.04,0-2.06.13-2.96.12-.71.24-1.41.24-1.99,0-2.51-2.31-3.31-4.25-3.54-2.53-.21-8.1-.61-10.92-.61-15.1,0-18.07,5.94-20.7,11.19-1.14,2.38-1.65,4.87-1.65,8.06,0,5.89.92,9.75,5.95,14.52,1.15.91,1.5,1.16,5.32,3.62q5.86,3.86,6.5,4.38c1.67,1.31,2.53,2.74,2.53,4.21,0,2.71-2.55,4.27-6.98,4.27-3.11,0-6.45-1.02-7.54-1.57-1.8-.84-1.94-.91-2.73-.91-1.42,0-3.79.56-3.79,4.28,0,.69.03,2.66.06,4.56.03,1.83.06,3.62.06,4.23,0,4.75,0,5.14,3.08,6.31,4.02,1.42,6.1,2.05,13.07,2.05,14.06,0,20.04-5.49,22.57-10.1,2.13-3.78,3.25-8.13,3.25-12.61,0-7.46-2.09-10.8-4.13-13.08-.18-.25-.31-.42-.45-.58Z"/>
    <path class="cls-2" d="M842.53,18.7c-9.43,0-17.64,5.04-21.44,13.15-1.14,2.63-3.14,8.54-3.64,13.12-.12,1.7-.37,13.17-.37,14.02,0,7.4.88,10.12,2.91,14.52,3.49,7.89,7.26,11.23,14.42,12.8,1.58.39,7.29.56,9.37.6,2.65,0,3.25-.31,3.65-.5.34-.17,1.72-.93,1.72-2.53,0-.26-.03-.93-.06-1.56-.03-.57-.05-1.11-.05-1.29,0-6.09,0-6.83.12-9.32.13-1.11.13-1.47.13-2.07,0-1.83-1.64-2.24-1.96-2.31-.55-.14-1.13-.16-1.75-.16-.47-.02-.93-.03-1.41-.08-3-.25-7.51-3.32-7.51-10.7,0-8.59.35-10.26,1.3-12.56.92-1.98,2.62-4.58,6.8-4.58,3.05,0,4.77-.14,4.77-3.16v-2.48c0-.47-.03-1.69-.07-2.82-.02-.96-.05-1.85-.05-2.14,0-.51.07-2,.13-3.43.06-1.31.11-2.58.11-3,0-3.36-1.83-3.53-7.12-3.53Z"/>
    <path class="cls-2" d="M902.74,37.33c0-7.96-1.26-10.17-2.54-11.75-2.75-3.2-10.54-6.63-19.55-6.63-4.81,0-12.24,1.31-17.15,2.45-2.6.48-3.84,1.55-3.84,3.31,0,.36.06,1.43.12,2.49.06,1.11.12,2.21.12,2.59s-.04,1.5-.07,2.56c-.03.95-.05,1.85-.05,2.15,0,2.71.97,4.15,2.79,4.15.6,0,.93-.1,4.42-1.43,2.57-1.03,5.01-1.54,7.46-1.54.4,0,1.42.07,2.39.14.85.06,1.65.11,1.94.11,2.72.13,6.74.3,6.74,5.26,0,1.36-1.02,3.28-3.27,3.28-.28,0-1.4-.1-2.66-.21-1.51-.14-3.23-.29-3.78-.29h-.62c-2.19,0-4.27,0-11.03,3.38-2.45,1.27-4.61,3.48-6.61,6.76-1.48,2.73-1.98,6.26-1.98,13.94,0,5.68,1.7,10.2,5.21,13.8,4.85,4.95,9.82,4.95,12.8,4.95,1.79,0,6.51,0,9.37-2.52.45-.45,1.06-1.06,1.76-1.06.62,0,1.16.35,1.46.94.14.2.23.51.29.75.02.02.19.45.2.49.12.22.58.67,1.14.67.49,0,1.82-.09,3.16-.17,1.38-.1,2.77-.19,3.27-.19s1.86.03,3.16.06c1.2.03,2.37.06,2.78.06.77,0,2.54-.26,2.54-2.66,0-.55-.09-2.17-.18-3.79-.1-1.67-.19-3.32-.19-3.89,0-.77.1-2.96.19-5.11.09-2.02.18-4.01.18-4.67,0-.69-.03-2.55-.06-4.37-.04-1.74-.06-3.44-.06-4.05,0-.39.03-1.5.06-2.56.03-.95.05-1.86.05-2.14,0-.56-.06-2.08-.13-3.54-.06-1.41-.12-2.78-.12-3.26,0-.7.07-2.58.13-4.41.06-1.72.12-3.41.12-4.01ZM879.53,72.66c-2.21,0-5.5-1.86-5.5-6.99,0-6.25,3.37-8.47,6.25-8.47,3.63,0,5.25,3.69,5.25,7.36,0,5.15-2.19,8.1-6,8.1Z"/>
    <path class="cls-2" d="M961.41,46.24c-.12-6.32-.35-7.12-1.86-12.35-1.09-3.81-2.3-8.03-6.64-11.66-2.99-2.42-7.36-3.52-10.13-3.52-1.72,0-5.98.38-8.37,3.97-1.19,1.5-1.37,1.72-1.91,1.72-.39,0-1.29-.21-1.29-2.16,0-.37.04-.66.08-.93.02-.18.05-.36.05-.56,0-.35,0-1.43-2.18-1.43-.28,0-.57.03-.85.06-.34.04-.67.06-1.01.06-1.16.25-2.46.25-3.84.25-.43,0-1.65-.03-2.87-.06-1.2-.02-2.39-.06-2.82-.06-.21,0-.89-.04-1.49-.07-.47-.03-.88-.06-.99-.06-.78,0-1.31.29-2,1.08-.68.88-.79,1.93-.79,4.06,0,.91.04,3.34.07,5.67.03,2.17.06,4.26.06,4.97v4.7c0,.69.06,2.58.13,4.41.05,1.79.12,3.51.12,4.13,0,.69-.1,2.6-.18,4.5-.1,1.87-.19,3.74-.19,4.41,0,1.39.1,5.17.19,8.86.09,3.54.18,7.01.18,8.22,0,1.34-.06,5.02-.13,8.61-.06,3.39-.12,6.71-.12,7.86v3.21c0,2.31,1.98,2.79,3.66,2.79.43,0,1.57-.03,2.71-.06,1.15-.03,2.3-.06,2.73-.06.25,0,3.5,0,6.11.13h1.08c.97,0,2.17,0,2.17-2.42,0-.5-.07-1.89-.13-3.23-.06-1.28-.12-2.53-.12-2.96,0-1.56.78-3.15,2.29-3.15.51,0,1.05.27,1.57.52.19.1.4.2.58.27,2.24,1.18,4.96,1.3,6.02,1.3,8.78,0,15.05-8.18,16.94-13.34.34-.77,2.2-7.25,2.32-7.87.67-2.73.98-5.62.98-9.19,0-.38-.03-2.25-.05-4.32-.03-2.62-.07-5.56-.07-6.32ZM941.14,64.43c-.17.54-1.63,3.16-4.31,3.16-5.49,0-5.49-8.94-5.49-12.31,0-6.22.46-10.41,1.41-12.8,1.35-3.23,3.66-3.47,4.33-3.47,1.47,0,4.37,1.19,4.89,5.66.12.99.49,5.83.49,9.13,0,1.87-.1,8.18-1.32,10.64Z"/>
    <path class="cls-2" d="M989.5,41.29v-10.15c0-1.62,0-3.14.13-4.76,0-.45.03-.97.06-1.47.02-.48.06-.96.06-1.43,0-4.15-1.17-4.15-5.03-4.15-2.13,0-10.98.13-12.09.36-2.12.37-2.21,1.4-2.21,5.28,0,.28.06,1.15.12,2.06.06,1.04.13,2.13.13,2.53,0,.56-.06,2.12-.12,3.68-.06,1.53-.13,3.07-.13,3.62,0,.94.06,3.61.13,6.23.06,2.54.12,5.04.12,5.89,0,1.09-.04,4.11-.07,7.06-.03,2.75-.05,5.42-.05,6.31,0,.84.03,3.08.06,5.23.03,1.98.06,3.89.06,4.55,0,.7-.07,2.64-.13,4.54-.06,1.78-.12,3.52-.12,4.12,0,3.74.13,5.39,3.16,5.39.45,0,1.67-.06,2.85-.13,1.14-.06,2.23-.12,2.6-.12.51,0,1.91.03,3.28.06,1.27.03,2.49.06,2.9.06,4.27,0,4.27-.48,4.27-2.79,0-1.09.03-4.11.06-7.05.03-2.75.06-5.42.06-6.32v-7.55c0-.41.04-1.48.06-2.42.03-.76.06-1.44.06-1.66,0-1.21-.13-2.29-.25-3.38-.13-1.14-.13-2.29-.13-3.43,0-.82.03-3.06.06-5.26.03-2.1.05-4.17.05-4.9Z"/>
    <path class="cls-2" d="M1033.03,18.7c-5.06,0-8.32,2.06-9.71,2.95-.18.1-.44.26-.73.45-1.12.71-1.28.8-1.57.8-.39,0-1.09-.19-1.5-1.42-.1-.23-.16-.49-.23-.76-.08-.31-.14-.56-.27-.74-.41-.65-1.58-.71-2.77-.61-.39.03-.78.06-1.18.06-1.04.12-2.42.25-5.07.25-.14,0-.4-.01-.72-.04-.51-.03-1.19-.08-1.88-.08-1.17-.13-2.24-.13-2.6-.13-.92,0-2.23.16-3.02,1.58-.34.61-.51,2.35-.51,5.18,0,.63.1,2.39.19,4.09.09,1.66.18,3.28.18,3.83,0,.4-.03,1.5-.06,2.57-.03.94-.06,1.84-.06,2.14,0,.51.04,1.81.06,3.05.03,1.19.06,2.34.06,2.76-.12,2.65-.25,5.26-.49,7.99-.13,2.89-.25,5.38-.25,7.97,0,1.15.11,4.32.19,7.39.1,2.92.18,5.76.18,6.73,0,.62-.06,2.31-.12,3.99-.06,1.66-.12,3.32-.12,3.93,0,2.73,1.46,3.69,3.65,3.48.33-.03.67-.07,1-.07.92-.12,2.07-.12,3.21-.12h4.71c.27,0,1.37.07,2.4.14.85.06,1.64.11,1.8.11,1.79,0,2.05-1.98,2.05-3.16,0-.7,0-1.4-.12-2.1-.13-2.32-.26-4.57-.26-6.32,0-1.88.1-3.74.19-5.57.09-1.79.18-3.55.18-5.32,0-.55-.06-2.09-.13-3.61-.06-1.56-.12-3.13-.12-3.69,0-3.04.36-9.8.62-13.31.27-4.9,3.51-5.44,4.89-5.44,4.75,0,4.75,4.27,4.75,5.88v3.22c-.05,1.16-.16,2.28-.25,3.4-.09,1.1-.18,2.22-.25,3.33-.12,1.72-.12,3.55-.12,5.27,0,1.06.09,3.97.19,6.84.09,2.79.18,5.55.18,6.53,0,.89-.16,3.34-.32,5.74-.15,2.27-.3,4.49-.3,5.28,0,.91.86,2.01,1.37,2.53.2.13.72.38,2.28.38.49,0,1.89-.09,3.3-.17,1.44-.1,2.89-.19,3.39-.19.56,0,2.1.11,3.47.21,1.04.08,1.96.15,2.22.15,2.42,0,3.29-1.87,3.29-7.12,0-.45-.08-1.67-.13-2.86-.06-1.14-.12-2.22-.12-2.58,0-.64.06-2.34.13-3.98.06-1.54.12-3.03.12-3.57,0-.57-.04-2.09-.06-3.56-.04-1.41-.06-2.77-.06-3.24,0-.7.06-2.74.13-4.73.06-1.88.12-3.71.12-4.31,0-.57-.03-2.16-.06-3.69-.03-1.46-.05-2.88-.05-3.36s.06-1.69.13-2.88c.06-1.06.12-2.09.12-2.44,0-4.38-.47-9.92-4.12-13.95-1.38-1.52-5.25-5.05-11.42-5.05Z"/>
    <path class="cls-2" d="M1105.05,39.31c0-.83-.07-3.1-.13-5.28-.06-2.02-.12-3.96-.12-4.63,0-.57.06-2.11.13-3.6.05-1.38.12-2.72.12-3.2,0-2.93-.07-3.34-4.19-3.41-.54,0-1.14,0-1.66.11-1.34.14-2.85.27-4.99.27-.5,0-2.02-.13-3.53-.25-.8-.03-1.66-.05-2.32-.08l-.84-.04c-.83,0-.92.14-1.06,1.51,0,.9-.53,1.59-1.29,1.59-.51,0-.72-.18-1.88-1.12-2.54-1.98-5.54-2.34-7.66-2.34-12.24,0-16.89,14.14-16.93,14.28-.43,1.13-2.32,8.33-2.32,14.5,0,4.68.24,5.95.95,9.71.91,5.21,1.54,8.24,4.34,11.97,2.25,3.07,3.86,3.88,5.05,4.46,3.65,1.77,6.66,1.77,7.93,1.77,4.46,0,5.58-.46,7.62-1.3.77-.38,1.59-.8,2.53-.8,1.32,0,2.53,1.27,2.53,2.65,0,2.95-3.52,6.25-8.22,6.25-.4,0-1.42-.07-2.39-.14-.85-.06-1.66-.11-1.94-.11l-1.27-.08c-1.32-.07-2.58-.14-3.87-.44-.51-.17-.96-.35-1.43-.53-.69-.27-1.38-.56-2.03-.7-1.3-.35-2.21-.35-2.56-.35-.85,0-2.35.29-2.81,2.24-.11,1-.22,4.04-.22,5.13q0,6.61,1.22,7.37c1.39.81,7.86,2.36,17.03,2.36,12,0,16.87-2.88,19.78-5.38,5.34-4.62,6.41-10.58,6.41-18.71,0-2.59,0-5.3-.13-7.88l-.11-3.76c-.12-3.87-.26-8.22-.26-8.41,0-1.07.12-4.06.26-7.02.12-2.83.24-5.63.24-6.6ZM1086.47,50.2c-.09,2.27-.3,8.23-5.26,8.23-3.85,0-5.01-2.89-5.44-3.97-.55-1.64-.92-5.66-.92-7.23,0-3.05.91-6.89,2.01-8.39,1.23-1.63,2.75-2.44,4.48-2.44,4.05,0,5.13,5.79,5.13,8.85v4.95Z"/>
    <g>
      <path class="cls-1" d="M823.18,176.87c-.34,0-.59.05-1.52.24-1.14.24-1.57.35-2.02.84-.29.33-1.08,1.91-1.18,3.04,0,.49-.04.53-.49.97-.39.4-.44.46-1.71.46-.35,0-1.97-.06-2.36-.06-.2,0-1.23.1-1.48.1s-1.47-.2-1.52-.25c-.34-.2-.78-.83-.78-1.47,0-.35.05-.79.19-1.19.11-.24.2-.49.25-.73.1-.28.1-.64.15-.92.05-.41.1-.71.14-1.04.05-.29.4-1.52.45-1.81.14-.74.14-1.47.25-2.16.09-.48.54-2.51.69-3.04.1-.4.25-.84.34-1.24.15-.73.19-1.48.34-2.16.05-.29.69-3.29.88-3.68.1-.29.3-.58.34-.93.05-.2.05-.44.1-.64.05-.36.64-3.6.79-4.03.05-.2.1-.44.15-.64.04-.3.1-.54.19-.83.1-.4.29-.79.39-1.19.15-.39.2-.79.25-1.22.55-3.74,1.34-5.36,4.09-5.36.19,0,.68,0,1.22.05,1.32.1,2.99,0,5-.1,1.28-.2,2.7.14,3.64.84.83.63,1.13,1.17,1.47,2.54.2.65.34,1.33.54,2.03.14.53.39,1.08.53,1.61l.4,1.86c.05.3.05.6.15.89.05.25.15.49.25.73.1.35.49,1.61.69,2.65.14.94.14,1.04.34,1.72.19.59.59,2.16.63,2.46.05.49.05.98.16,1.43.09.29.25.59.34.88.04.29.39,1.53.43,1.81.09.5.09,1.04.19,1.54.1.33.25.62.35.97.15.55.49,1.87.54,2.36.05.54.05.64.19.98.25.64.58,1.97.75,2.76.09.39.14.73.24,1.07.1.36.29.64.34.94.05.2.15,1.32.15,1.43,0,.93-1.18.93-2.11.93-.4,0-2.26.15-2.7.15-2.99,0-3.38-.3-4.02-2.07-.15-.44-.19-.88-.4-1.28-.1-.2-.19-.38-.29-.58-.28-.69-.49-.99-1.38-1.38-.48-.2-2.45-.3-2.99-.3h-1.57ZM821.61,164.4c-.05.33-.15.68-.25,1.01-.15.56-.29,1.09-.29,1.68,0,1.67,1.23,2.35,3.1,2.35.48,0,1.52-.1,2.25-.23.49-.11,1.03-.25,1.03-1.24,0-.2,0-.39-.05-.59-.14-1.41-.19-1.86-.58-3.09-.15-.49-.35-.98-.44-1.52-.15-.49-.2-1.08-.29-1.57-.1-.36-.25-.64-.34-.99-.15-.38-.39-1.37-.49-1.77-.29-1.07-.93-1.07-1.13-1.07-.34,0-.64.23-.83.54-.4.53-1.03,2.98-1.07,3.13-.05.4-.1.79-.15,1.19-.11.38-.2.73-.25,1.13-.1.35-.15.68-.2,1.04Z"/>
      <path class="cls-1" d="M848.97,151.28c0-.19-.15-1.21-.15-1.47,0-.38,0-.84.1-1.12.1-.35.44-.78.98-.78.14,0,.84.14,1.04.14h.29c.15-.05.29-.05.45-.05h.73l.1.05h.29s.29,0,.54-.05h.63c.3,0,1.29.05,1.58.14.15.05.24.1.39.14.3.1.64,0,.94.1.29.1.84.58.88.64.44.5,2.7,4.12,2.95,4.52.14.14.29.34.39.49.2.3.34.59.55.84.98,1.57,1.08,1.72,1.37,2.36.29.63.89,1.46,1.37,2.1.93,1.37,1.77,2.86,2.51,4.33.1.24.77,1.42.93,1.72.25.39.63,1.03.78,1.03.49,0,.44-1.18.44-2.11,0-.2.05-1.13.05-1.33,0-.35-.05-.65-.05-.93,0-.25.1-1.28.1-1.52s-.14-1.52-.14-1.83c0-.29.14-1.72.14-2.05,0-.35-.14-2.08-.14-2.41-.06-.55,0-2.99,0-3.59,0-.15-.1-1.08-.1-1.32,0-.73.54-1.09.78-1.18.16-.04.34-.04,1.32-.04h1.28c.15,0,.49,0,.89.04.34,0,.73.05.88.05.34,0,.64-.05.98-.05.1,0,.75-.1.88-.1.5,0,1.28.5,1.28,1.82,0,.34-.15,1.86-.15,2.25,0,.29.05,1.97.05,2.31,0,.44-.05,2.65-.05,3.13v1.62c0,.5,0,.99-.05,1.49,0,.38-.14,2.35-.14,2.78,0,.35.1,2.12.1,2.52.04,1.02,0,2.69,0,3.77,0,1.23.04,3.24.04,4.52,0,.25-.04.49-.04.69-.05.35-.1.65-.1.93,0,.2.05,1.15.05,1.32,0,.5.29,3.01.29,3.55,0,.48,0,1.68-1.81,1.68-.25,0-.54,0-.79-.06-.14,0-.79.06-.93.06-.24,0-1.47-.11-1.72-.11-.19,0-.98.11-1.18.11-1.13,0-1.72-1.03-2.26-2.11-.43-.89-.49-.89-1.08-1.77-.59-.79-1.13-1.68-1.57-2.51-.93-1.72-1.72-2.94-1.77-3.05-.18-.35-.44-.64-.68-.93-.19-.35-.39-.68-.64-1.04-.29-.44-.64-.93-.99-1.37-.18-.34-.39-.69-.58-1.04-.34-.54-.73-1.12-1.03-1.67-.39-.64-.69-1.34-1.03-1.97-.15-.24-.29-.48-.49-.68-.19-.15-.58-.45-.83-.45-.05,0-.54,0-.64.93-.05.35-.15,2.17-.15,2.56,0,.2.05,1.13.05,1.37,0,.15-.05,1.04-.05,1.23v1.12c0,.16-.04.99-.04,1.19,0,.1,0,.43.04.78.05.34.05,1.58.05,2.06,0,.2.1,1.37.1,1.62.05.25,0,1.43,0,1.72,0,.15,0,.35.05.48,0,.25.19,1.39.19,1.63,0,.78-1.03,1.52-1.28,1.57-.15.05-.78,0-.93,0-.19,0-1.23.2-1.47.2-.1.05-.93.05-1.08.05-.25,0-1.48.1-1.72.1-.78,0-1.18-.25-1.33-.35-.63-.43-.58-.83-.58-1.21.05-.4,0-2.16,0-2.62,0-.37.09-2.34.09-2.78,0-.2-.04-1.19-.04-1.43v-1.23c0-.3.1-1.95.1-2.3,0-.15-.1-1.19-.1-1.37-.05-.46-.05-.89-.05-1.28,0-1.27.05-2.59.09-3.83.11-1.03.11-1.08.11-1.37,0-.94-.15-1.87-.2-2.76,0-.44.05-2.6.05-3.09,0-.44-.1-2.5-.1-2.99,0-.15.05-.93.05-1.08,0-.15-.05-.69-.05-.83v-.65Z"/>
      <path class="cls-1" d="M892.26,162.97c0-.25.04-1.49.04-1.76,0-.64-.04-3.93-.04-4.72,0-.29.04-1.81.04-2.21,0-.44-.15-2.86-.15-3.4,0-.88.2-2.3,1.08-2.65.25-.1,3.93-.19,4.52-.19.19,0,.73.06,1.33.06.54.04,1.08.09,1.27.09,1,0,1.97-.19,2.96-.19.14,0,.88.05,1.02.05.1,0,.64-.05.78-.05.1,0,.73.1.88.1h.64c.78,0,1.96.29,2.16.38.2.06.4.15.59.2.39.11.79.16,1.18.28.25.16.49.36.73.46.26.1.5.1.74.2.2.09.45.24.64.33.25.15.54.2.78.31.4.19,4.52,2.64,6.43,7.01.1.2,1.13,2.65,1.23,2.94.19.69.55,3.15.55,3.73,0,.2-.05,1.1-.05,1.29,0,.29.1,1.52.1,1.81,0,.84-.04,1.03-.44,2.86-.29,1.61-.34,1.81-.59,2.31-.1.28-.25.53-.4.82-.14.34-.24.74-.39,1.08-.19.35-.43.64-.69.99-.24.4-.45.78-.68,1.19-.25.33-2.22,2.5-2.41,2.7-.69.64-2.01,1.42-2.5,1.66-.49.2-.98.35-1.47.48-.34.16-.69.31-1.04.46-.54.2-1.17.29-1.76.44-1.82.44-2.85.44-7.91.44h-.15c-.64,0-3.73-.15-4.47-.15h-1.47c-.84,0-3.14,0-3.14-1.72,0-.25.1-1.37.1-1.61,0-.88-.15-4.87-.15-5.4,0-.16.05-1.43.05-2.47.05-1.17.1-2.5.1-3.73,0-.34-.15-1.92-.15-2.3,0-.2.11-1.19.11-1.42v-.69ZM902.61,156.39c-.54.1-.58.14-.93.44-.6.55-1.04.88-1.17,2.65-.05.29,0,1.82,0,2.16,0,.55-.16,3.09-.16,3.69,0,1.81,0,4.96.2,6.67.1,1.37.25,2.75,5.26,2.75.39,0,.78,0,1.17-.04.89-.15,2.7-.79,3.4-1.19,2.75-1.67,3.38-6.58,3.38-7.36,0-.3-.06-1.67-.15-2.17-.09-.48-.24-.94-.34-1.43-.05-.29-.1-.64-.19-.93-.2-.39-.49-.74-.74-1.12-.15-.2-.25-.4-.34-.6-.49-.83-.79-1.03-1.62-1.57-.25-.19-1.44-1.12-1.72-1.28-1.23-.64-3.73-.79-4.42-.79-.34,0-.98.05-1.62.1Z"/>
      <path class="cls-1" d="M955.24,161.74c0-.25.05-2.01.05-2.25,0-.2-.05-1.08-.05-1.32,0-.15.05-.89.05-1.04,0-.2-.05-1.04-.1-1.21v-1.63c-.05-.73-.25-4.42-.25-4.66,0-.74.19-1.04.98-1.52.29-.2.49-.25.79-.25h.34l.05.06h.25c.28,0,2.16-.06,2.35-.06.04-.04.98-.09.98-.09,1.18,0,1.47.09,3.14,2.89.44.69,1.23,1.76,1.67,2.51.19.3.34.64.54.98.19.34.49.64.75.99.19.24.98,1.37,1.17,1.61.59.83,1.57,2.12,2.21,2.95.54.73,1.28,1.72,1.86,1.72.69,0,1.23-.93,1.57-1.52.25-.35,1.47-2.12,1.72-2.5.2-.34.39-.64.58-.98.3-.48.73-.94,1.04-1.48.14-.29.29-.59.44-.83.29-.64.69-1.24.98-1.82.4-.79.69-1.58,1.13-2.31.2-.25.35-.48.49-.79.16-.24.25-.48.4-.68.1-.1.68-.64,1.42-.64.39,0,2.1.11,2.5.11.44,0,.89-.11,1.29-.11.18,0,.92.11,1.07.11.89,0,1.62.88,1.62,1.52,0,.09-.1,1.27-.1,1.52-.05.88-.05,1.82-.05,2.69v3.29c0,.3-.2,1.87-.2,2.21,0,.66.2,3.7.2,4.43,0,.24-.05,1.57-.05,1.86,0,.66.15,3.88.15,4.63,0,.49-.05,2.94-.05,3.49v.64c-.05.34-.29,2.17-.29,2.56,0,.34.24,2.1.24,2.5,0,.15-.05.88-.05,1.07v.5c0,1.12-.88,1.67-2.36,1.67-.34,0-1.92-.05-2.26-.05h-1.37c-.16,0-.93.05-1.13.05-.4,0-1.13-.29-1.13-1.42,0-.2-.1-1.14-.1-1.34,0-.29.1-1.85.1-2.21,0-.29-.05-1.52-.05-1.77,0-.28.1-1.67.1-1.96,0-.45-.04-.94-.04-1.37,0-.25.1-1.44.1-1.72v-1.67c0-.16-.1-.74-.1-.89,0-.3-.45-.84-.85-.84-.92,0-1.76,1.08-2.1,1.52-.44.53-.84,1.08-1.33,1.57-.73.69-.83.79-1.28,1.43-.98,1.41-1.27,1.67-2.21,1.67-.19,0-.34-.05-.58-.19-.6-.3-.64-.35-1.13-1.08-.49-.79-1.81-2.41-2.5-3.15-.2-.2-.39-.34-.54-.54-.19-.19-.34-.43-.53-.68-1.03-1.52-1.53-2.01-2.06-2.01-.29,0-.84.15-1.04.34,0,.05-.48.6-.48,2.01v2.61c0,.29.05,1.76.05,2.06,0,.34-.25,1.92-.25,2.31,0,.64.1,3.83.1,4.56,0,.2.05,1.23.05,1.42,0,1.04-.94,1.44-1.57,1.44-.15,0-.69-.06-1.23-.1-.54,0-1.13-.05-1.32-.05-.14,0-.58.05-1.02.05-.4.05-.84.1-1.04.1-1.19,0-1.32-.31-1.63-.84-.24-.55-.3-.66-.3-1.04,0-.4.06-2.41.06-2.84,0-.25-.06-1.39-.06-1.63,0-1.09.16-2.12.16-3.14,0-.45-.05-2.51-.05-3.01v-1.91c0-.24-.05-1.52-.05-1.81,0-.69.1-1.32.1-2.01,0-.15-.05-.84-.05-1.04s.1-1.32.1-1.63Z"/>
      <path class="cls-1" d="M999.94,162.58c.1-.69.73-3.29.93-3.72.09-.25.83-1.97.93-2.12.14-.29.4-.58.59-.88.14-.25.93-1.72,1.13-2.01.24-.34.63-.64.88-.99.29-.33.54-.73.88-1.06.3-.31.64-.54.99-.79.34-.25.58-.54.93-.79.39-.34,1.52-.93,2.17-1.18.34-.14.69-.19,1.03-.34.44-.14.88-.4,1.32-.54.69-.19,3.98-.59,4.23-.59.4,0,2.31.35,2.75.4.84.09,1.67.19,2.46.49.19.11,3.29,1.52,3.49,1.67.6.29,1.96,1.62,2.56,2.21.29.29.58.68.88,1.04.19.25.44.49.69.68.43.54.73.88,1.03,1.68.19.38.34.78.49,1.17.29.64.63,1.23.93,1.87.25.58.39,1.17.48,1.82.15.79.5,5.56.5,6.13,0,.64-.35,2.65-.5,3.2-.18.68-.78,2.84-1.02,3.44-.31.78-.7,1.76-2.02,3.53-.44.64-2.41,2.69-3.09,3.09-.44.31-.99.44-1.48.68-.3.2-.54.4-.88.54-.15.1-2.51,1.04-2.7,1.08-.45.1-.93.16-1.43.25-.29.05-.59.16-.84.19-.58.09-1.08.14-1.57.14-.53,0-2.31-.05-2.75-.1-.34-.04-.73-.13-1.07-.23-.44-.05-.89-.09-1.34-.25-.29-.04-.62-.15-.92-.3-.64-.28-.68-.33-1.38-.53-.44-.15-.83-.31-1.22-.53-.44-.31-.83-.64-1.28-.99-2.01-1.43-2.26-1.57-3.73-3.58-.83-1.03-.88-1.19-1.47-2.31-.2-.44-.49-.84-.69-1.24-.39-.93-.73-2.74-.84-3.4-.1-1.06-.29-4.06-.29-5.05,0-.58.09-1.18.25-1.77ZM1007.84,166.7c.04.59.29,1.18.44,1.77.44,1.62.48,1.82.98,2.64.83,1.48,2.65,2.86,2.89,2.95.25.1.6.1.9.2.19.05.34.15.53.2.15.05.29.1.49.15.64.14.69.14,1.37.14.1,0,.74.06.89.06.04,0,1.17,0,1.43-.06.78-.14,2.5-1.23,2.94-1.57,1.03-.78,2.17-2.5,2.31-2.7.1-.2.2-.64.78-2.79.2-.94.26-1.44.26-1.87,0-.53-.05-1.04-.05-1.57v-.64c0-.29,0-.55-.05-.83-.04-.2-.78-2.36-1.17-2.94-.29-.51-.74-.83-1.08-1.28-.35-.39-.64-.89-1.04-1.18-.39-.34-2.46-1.23-2.65-1.29-.44-.13-2.26-.17-2.56-.17-.43,0-.88,0-1.22.09-1.28.29-1.33.34-2.07.83-1.42.88-1.57.98-2.16,1.72-.49.54-1.31,1.92-1.52,2.35-.29.58-.29,1.34-.44,2.02-.09.53-.25,1.02-.29,1.57v.28c0,.2.1,1.88.1,1.92Z"/>
      <path class="cls-1" d="M1043.7,161.6c0-1.63.19-3.19.25-4.82,0-.58-.05-3.38-.05-4.01,0-.29-.1-1.67-.1-1.97,0-1.37,0-3.15,2.02-3.15.19,0,1.08.1,1.26.1.2,0,1.14-.05,1.34-.05.28,0,1.76.05,2.1.05h1.62c.25,0,1.48-.05,1.77-.05.54,0,1.37-.06,1.92-.06.34,0,2.7.1,3.04.2.4.06,2.02.49,2.51.64.34.2,2.21,1.04,2.31,1.08.78.44,1.77,1.28,2.06,1.58.1.13,1.42,1.96,1.52,2.1.16.2,1.14,2.31,1.18,3.79,0,.14-.04.93-.04,1.08,0,.29.1,1.67.1,1.96,0,1.08-.6,3.78-1.23,5.06-.44.79-1.62,2.21-2.16,2.79-1.71,1.82-1.91,2.01-1.91,2.65,0,.69.45,1.04.89,1.36,1.02.79,2.35,1.43,2.7,1.53.28.1.54.15.83.25.74.43.74,1.12.74,1.47s-.05.74-.05,1.09c0,.19.1,1.07.1,1.27,0,.3-.15,1.83-.15,2.16,0,.16.05.88.05,1.04,0,1.52-1.82,1.72-2.05,1.72-2.12,0-4.09-1.57-4.43-1.87-.73-.59-2.21-1.91-3.14-3-.15-.2-.34-.43-.54-.58-.29-.24-.59-.45-.93-.64-.15-.15-.93-.79-1.08-.88-1.27-.84-1.72-.88-2.45-.88-.25,0-.64.2-.75.24-.44.29-.54.54-.73.98-.29.64-.35.79-.35,2.16,0,.35,0,.45.16,1.49.05.19.24,1.32.24,1.57,0,.92-.68,1.38-1.32,1.38-.34,0-.69-.11-1.03-.16-.3-.04-.64-.1-.99-.1-.04,0-.93.06-1.03.06-.34.04-.63.04-1.14.04-.24,0-1.52.05-1.76.05-1.22,0-1.48-1.21-1.48-1.72,0-.39.11-.79.16-1.17.04-.35.04-.68.04-.99s-.04-1.66-.04-2.01c0-.64.04-1.32.1-2.01.04-.83.1-1.42.1-1.67,0-.73-.1-1.52-.1-2.26,0-.54-.05-2.56-.05-3.1,0-.25.05-1.41.05-1.72,0-.28-.1-1.77-.1-2.1,0-.59,0-1.33.04-1.97ZM1052.98,155.51c-.54.25-.59.34-.84.88-.34.84-.4.98-.4,1.57,0,.35.1,2.01.1,2.41,0,.34-.1,1.96-.1,2.31,0,.38.16,2.3.16,2.74.05.45.1,1.19.88,1.44.25.09,1.37.13,1.43.13q.19,0,.93-.09c.44-.09.53-.15,1.13-.4.25-.09.44-.19.69-.29.2-.15.39-.39.64-.54.19-.25.43-.38.63-.58.45-.35.55-.48,1.33-1.87.34-.64.98-1.81.98-3.63,0-.93-.54-3.14-2.7-3.83-1.03-.3-1.17-.35-1.91-.35-.1,0-2.02-.2-2.06-.2-.19,0-.55.15-.89.3Z"/>
      <path class="cls-1" d="M1093.66,147.85c.2,0,1.37-.09,1.62-.09s1.48-.05,1.77-.05c.44,0,2.6.14,3.09.14.29,0,1.67-.09,1.96-.09,1.17,0,1.67.64,1.67,1.62,0,.2-.04,1.27-.04,1.52,0,.36.14,1.96.14,2.32,0,.58-.04.64-.54,1.27q-.25.36-.64.5c-.4.15-.64.24-1.18.24-.24,0-1.22-.04-1.47-.04-.29,0-1.81.09-2.21.09-.15,0-.34,0-.54-.05-.44,0-.83-.09-1.28-.13-.43-.06-.83-.06-1.27-.06-2.75,0-3.54.39-3.54,2.42,0,2.3,0,3.13,1.62,3.37,1.08.15,1.18.15,1.82.15.39,0,2.2-.15,2.65-.15.29,0,1.91.2,2.26.2.64,0,1.33-.1,1.96-.1.4,0,1.14,0,1.38.1.15.1.89.59.89,1.47,0,0-.04,1.13-.1,1.37-.05.79-.05.93-.05,1.97,0,.39-.05.49-.1.99-.1.64-.25,1.72-2.16,1.76h-2.51c-.19,0-1.08-.03-1.28-.03-.14,0-.88.03-1.03.03-.19,0-1.33-.14-1.57-.14-.49,0-.98.11-1.47.11h-.39c-.3,0-.84.14-1.04.24-.88.4-.88,1.62-.88,2.06,0,3.15,0,4.23,3.93,4.23.29,0,1.71-.06,2.01-.06.25,0,1.37.06,1.67.06.34,0,2.26-.06,2.61-.11.34-.05.69-.05,1.02-.05.25,0,1.58.05,2.02.94.34.69.34,1.63.34,2.08v.33c.05.45.2.94.25,1.38v1.29c0,.58-.04,1.61-1.67,1.61-.1,0-.45-.05-.79-.05-.34-.05-.73-.05-.88-.05s-.64.05-1.13.05c-.49.05-.99.1-1.17.1-.15,0-.64-.05-1.13-.05-.49-.05-.99-.05-1.18-.05-.05,0-1.08.05-2.11.05-1.08.05-2.2.1-2.46.1-.29,0-1.17-.06-2.11-.1-.89,0-1.82-.05-2.17-.05h-1.57c-.63.05-1.33.05-1.58.05s-.92,0-1.42-.45c-.39-.34-.79-1.17-.79-1.86,0-.2.06-1.13.06-1.33,0-.59-.1-1.12-.1-1.71v-.88c0-.35-.1-1.87-.1-2.22,0-.83.04-2.12.04-2.95,0-.2.05-1.06.05-1.26,0-.31-.05-1.72-.05-2.07,0-.24-.04-1.52-.04-1.8v-3.4c0-.29,0-.53.04-.83,0-.2.1-1.12.1-1.32,0-.29-.14-1.77-.14-2.06,0-.79.1-1.52.1-2.27,0-.28.1-2.25.1-2.49,0-.4-.16-2.12-.16-2.51,0-1.47.16-1.87.25-2.06.15-.28.64-1.22,1.72-1.22.3,0,1.58.04,1.87.04.4,0,2.36-.09,2.8-.09.34,0,2.06.09,2.4.09h1.82Z"/>
    </g>
  </g>
</svg>